<?xml version="1.0" ?><svg viewBox="0 0 64 64" xmlns="http://www.w3.org/2000/svg"><defs><style>.cls-1{fill:#ee7231;}.cls-2{fill:#0c3798;}.cls-3{fill:#f8cf6d;}.cls-4{fill:#88b8f9;}.cls-5{fill:#2f79f0;}.cls-6{fill:#fffeff;}</style></defs><title/><g data-name="23. Not Allowed" id="_23._Not_Allowed"><path class="cls-1" d="M20,14.62h-.06l-1-.12a.51.51,0,0,1-.44-.56.52.52,0,0,1,.56-.44l1,.13a.5.5,0,0,1-.06,1Z"/><path class="cls-1" d="M32,16.13h-.07l-2-.25a.49.49,0,0,1-.43-.56.5.5,0,0,1,.56-.43l2,.25a.49.49,0,0,1,.43.56A.5.5,0,0,1,32,16.13Zm-4-.5h-.06l-2-.25a.5.5,0,0,1-.44-.56.51.51,0,0,1,.56-.43l2,.25a.5.5,0,0,1,.44.56A.51.51,0,0,1,28,15.63Zm-4-.51h-.06l-2-.25a.49.49,0,0,1-.43-.56.5.5,0,0,1,.56-.43l2,.25a.5.5,0,0,1-.06,1Z"/><path class="cls-1" d="M35,16.5h-.06l-1-.13a.5.5,0,0,1-.44-.56.51.51,0,0,1,.56-.43l1,.12a.5.5,0,0,1-.06,1Z"/><circle class="cls-2" cx="23" cy="62" r="2"/><circle class="cls-2" cx="33" cy="62" r="2"/><path class="cls-3" d="M31,42H25a1,1,0,0,1-1-1V35a2,2,0,0,1,2-2h4a2,2,0,0,1,2,2v6A1,1,0,0,1,31,42Zm-5-2h4V35H26Z"/><rect class="cls-1" height="22" rx="2" width="18" x="19" y="40"/><circle class="cls-4" cx="12" cy="14" r="6"/><path class="cls-5" d="M12.55,29.63a2.85,2.85,0,0,1-.27.32l-5,5.1,4.17,4.54a2,2,0,0,1-2.82,2.82L2.34,36.66a2.23,2.23,0,0,1-.29-3l.17-.22,5.5-7.42a3,3,0,1,1,4.83,3.58Z"/><path class="cls-5" d="M26.91,33.9A2,2,0,0,1,25.2,36l-8.51,1.22L17,44v2h0V62a2,2,0,0,1-4,.25S11,46.06,11,46H9c0,.06-2,16.25-2,16.25A2,2,0,0,1,3,62V46H3V44l.23-5.15,4.68,4.29a2.94,2.94,0,0,0,2,.8,3,3,0,0,0,3-2.87,3,3,0,0,0-.79-2.16L8.62,35.08,13,30.66a4.82,4.82,0,0,0,.36-.43,4,4,0,0,0-.82-5.61,4,4,0,0,0-2.39-.79,4,4,0,0,0-3.22,1.62L3.64,29.87,3.73,28a6.28,6.28,0,0,1,12.54,0l.21,4.49L24.8,32A2,2,0,0,1,26.91,33.9Z"/><circle class="cls-4" cx="51" cy="14" r="6"/><path class="cls-3" d="M40.12,14.89l-6-.75a1,1,0,0,0-1.12,1v2a1,1,0,0,0,.88,1L37,18.5V23h2V18.75l.88.11a1,1,0,0,0,1.12-1v-2A1,1,0,0,0,40.12,14.89Z"/><path class="cls-4" d="M60.5,63.93a2,2,0,0,1-2.4-1.2l-3.47-8.94A1.81,1.81,0,0,1,54.5,53l0-.32L55,46H53.87a2.86,2.86,0,0,1-.27.52,1.77,1.77,0,0,1-.16.22l-5.06,6.45L45.94,62.5A2,2,0,0,1,42,61.72l1.43-10.23a2,2,0,0,1,.28-.77l.15-.23L47,45.67V33.06l6.93-1.17c.17,0,.35-.08.58-.14A4,4,0,1,0,52,24.14L47.6,25.6a6.27,6.27,0,0,1,11.92,2.1S61,46.29,61,46.42l-1.4,6.5,2.33,8.55A2,2,0,0,1,60.5,63.93Z"/><path class="cls-4" d="M54.19,30.8l-.46.11-8.16,1.37-.27,0a2.2,2.2,0,0,1-2.07-.77l-6.74-8.23a2,2,0,0,1,3-2.64l6.18,6.62,6.58-2.21a3,3,0,0,1,1.92,5.71Z"/><path class="cls-3" d="M23,59a1,1,0,0,1-1-1V44a1,1,0,0,1,2,0V58A1,1,0,0,1,23,59Z"/><path class="cls-3" d="M28,59a1,1,0,0,1-1-1V44a1,1,0,0,1,2,0V58A1,1,0,0,1,28,59Z"/><path class="cls-3" d="M33,59a1,1,0,0,1-1-1V44a1,1,0,0,1,2,0V58A1,1,0,0,1,33,59Z"/><circle class="cls-6" cx="29" cy="6" r="5"/><path class="cls-1" d="M29,0a6,6,0,1,0,6,6A6,6,0,0,0,29,0Zm0,2a4,4,0,0,1,2,.57L25.57,8A4,4,0,0,1,29,2Zm0,8a4,4,0,0,1-2-.57L32.43,4A4,4,0,0,1,29,10Z"/></g></svg>